<svg width="512" height="512" viewBox="0 0 512 512" fill="none" xmlns="http://www.w3.org/2000/svg">
  <circle cx="256" cy="256" r="256" fill="#2D5A34"/>
  <circle cx="256" cy="256" r="230" fill="white" opacity="0.1"/>
  <g transform="translate(64, 64) scale(8)">
    <path d="M24 44C24 44 40 36 40 24C40 12 24 4 24 4C24 4 8 12 8 24C8 36 24 44 24 44Z" stroke="white" stroke-width="2" stroke-linecap="round" stroke-linejoin="round"/>
    <path d="M24 44V24" stroke="white" stroke-width="2" stroke-linecap="round" stroke-linejoin="round"/>
    <path d="M24 24C24 24 32 20 36 12" stroke="white" stroke-width="2" stroke-linecap="round" stroke-linejoin="round"/>
    <path d="M24 24C24 24 16 20 12 12" stroke="white" stroke-width="2" stroke-linecap="round" stroke-linejoin="round"/>
    <path d="M16 32C18 36 22 38 24 38C26 38 30 36 32 32" stroke="#FF6B35" stroke-width="3" stroke-linecap="round"/>
  </g>
</svg>
